# xmcd
#
# Track frame offsets: 
#        150
#        12262
#        27675
#        50025
#        65512
#        85050
#        98925
#        112312
#        123412
#        140212
#        152775
#        166500
#
# Disc length: 2360 seconds
#
# Revision: 1
# Processed by: cddbd v1.5.1PL2 Copyright (c) Steve Scherf et al.
# Submitted via: ExactAudioCopy v0.95b3
#
DISCID=a909360c
DTITLE=James King - Bed By The Window
DYEAR=1998
DGENRE=Bluegrass
TTITLE0=Wear a Red Rose
TTITLE1=Big House on the Corner
TTITLE2=Bed By The Window
TTITLE3=Tall Pines
TTITLE4=Sweeter Than the Flowers
TTITLE5=I Don't Do Floors
TTITLE6=They'll Never Take Her Love From Me
TTITLE7=Pack Up Your Sorrows
TTITLE8=Love Me One More Time
TTITLE9=Yesterday's Winner is a Loser Today
TTITLE10=Called From Potter's Field
TTITLE11=The Lonely Years Belong to Me
EXTD=
EXTT0=
EXTT1=
EXTT2=
EXTT3=
EXTT4=
EXTT5=
EXTT6=
EXTT7=
EXTT8=
EXTT9=
EXTT10=
EXTT11=
PLAYORDER=
